<svg xmlns="http://www.w3.org/2000/svg" viewBox="0 0 2834.6 2834.6" width="400" height="400">
<defs>
<clipPath id="vp"><rect width="2834.6" height="2834.6"/></clipPath>
<style>

@keyframes traceA{from{stroke-dashoffset:12000}to{stroke-dashoffset:0}}
@keyframes fillA{from{fill-opacity:0}to{fill-opacity:1}}
.t1{fill:none;stroke:#0A84FF;stroke-width:8;stroke-dasharray:12000;stroke-dashoffset:12000;animation:traceA 1.2s cubic-bezier(0.4,0,0.2,1) 0.1s forwards}
.t2{fill:none;stroke:#0A84FF;stroke-width:8;stroke-dasharray:6000;stroke-dashoffset:6000;animation:traceA 0.9s cubic-bezier(0.4,0,0.2,1) 0.5s forwards}
.t3{fill:none;stroke:#0A84FF;stroke-width:8;stroke-dasharray:6000;stroke-dashoffset:6000;animation:traceA 0.9s cubic-bezier(0.4,0,0.2,1) 0.7s forwards}
.f1{fill:#0A84FF;fill-opacity:0;animation:fillA 0.4s ease-out 1.4s forwards}
.f2{fill:#0A84FF;fill-opacity:0;animation:fillA 0.4s ease-out 1.5s forwards}
.f3{fill:#0A84FF;fill-opacity:0;animation:fillA 0.4s ease-out 1.6s forwards}


@keyframes ab0_draw{from{stroke-dashoffset:800;fill-opacity:0}to{stroke-dashoffset:0;fill-opacity:1}}
.ab0{
  fill:#FEFCFF;fill-opacity:0;
  stroke:#FEFCFF;stroke-width:6;
  stroke-dasharray:800;stroke-dashoffset:800;
  animation:ab0_draw 0.22s ease-out 1.80s forwards;
}

@keyframes ab1_draw{from{stroke-dashoffset:800;fill-opacity:0}to{stroke-dashoffset:0;fill-opacity:1}}
.ab1{
  fill:#FEFCFF;fill-opacity:0;
  stroke:#FEFCFF;stroke-width:6;
  stroke-dasharray:800;stroke-dashoffset:800;
  animation:ab1_draw 0.22s ease-out 1.93s forwards;
}

@keyframes ab2_draw{from{stroke-dashoffset:800;fill-opacity:0}to{stroke-dashoffset:0;fill-opacity:1}}
.ab2{
  fill:#FEFCFF;fill-opacity:0;
  stroke:#FEFCFF;stroke-width:6;
  stroke-dasharray:800;stroke-dashoffset:800;
  animation:ab2_draw 0.22s ease-out 2.06s forwards;
}

@keyframes ab3_draw{from{stroke-dashoffset:800;fill-opacity:0}to{stroke-dashoffset:0;fill-opacity:1}}
.ab3{
  fill:#FEFCFF;fill-opacity:0;
  stroke:#FEFCFF;stroke-width:6;
  stroke-dasharray:800;stroke-dashoffset:800;
  animation:ab3_draw 0.22s ease-out 2.19s forwards;
}

@keyframes ab4_draw{from{stroke-dashoffset:800;fill-opacity:0}to{stroke-dashoffset:0;fill-opacity:1}}
.ab4{
  fill:#FEFCFF;fill-opacity:0;
  stroke:#FEFCFF;stroke-width:6;
  stroke-dasharray:800;stroke-dashoffset:800;
  animation:ab4_draw 0.22s ease-out 2.32s forwards;
}

@keyframes ab5_draw{from{stroke-dashoffset:800;fill-opacity:0}to{stroke-dashoffset:0;fill-opacity:1}}
.ab5{
  fill:#FEFCFF;fill-opacity:0;
  stroke:#FEFCFF;stroke-width:6;
  stroke-dasharray:800;stroke-dashoffset:800;
  animation:ab5_draw 0.22s ease-out 2.45s forwards;
}

@keyframes ab6_draw{from{stroke-dashoffset:800;fill-opacity:0}to{stroke-dashoffset:0;fill-opacity:1}}
.ab6{
  fill:#FEFCFF;fill-opacity:0;
  stroke:#FEFCFF;stroke-width:6;
  stroke-dasharray:800;stroke-dashoffset:800;
  animation:ab6_draw 0.22s ease-out 2.58s forwards;
}

@keyframes ab7_draw{from{stroke-dashoffset:800;fill-opacity:0}to{stroke-dashoffset:0;fill-opacity:1}}
.ab7{
  fill:#FEFCFF;fill-opacity:0;
  stroke:#FEFCFF;stroke-width:6;
  stroke-dasharray:800;stroke-dashoffset:800;
  animation:ab7_draw 0.22s ease-out 2.71s forwards;
}

@keyframes al0_draw{from{stroke-dashoffset:800;fill-opacity:0}to{stroke-dashoffset:0;fill-opacity:1}}
.al0{
  fill:#FEFCFF;fill-opacity:0;
  stroke:#FEFCFF;stroke-width:6;
  stroke-dasharray:800;stroke-dashoffset:800;
  animation:al0_draw 0.22s ease-out 2.60s forwards;
}

@keyframes al1_draw{from{stroke-dashoffset:800;fill-opacity:0}to{stroke-dashoffset:0;fill-opacity:1}}
.al1{
  fill:#FEFCFF;fill-opacity:0;
  stroke:#FEFCFF;stroke-width:6;
  stroke-dasharray:800;stroke-dashoffset:800;
  animation:al1_draw 0.22s ease-out 2.73s forwards;
}

@keyframes al2_draw{from{stroke-dashoffset:800;fill-opacity:0}to{stroke-dashoffset:0;fill-opacity:1}}
.al2{
  fill:#FEFCFF;fill-opacity:0;
  stroke:#FEFCFF;stroke-width:6;
  stroke-dasharray:800;stroke-dashoffset:800;
  animation:al2_draw 0.22s ease-out 2.86s forwards;
}

@keyframes al3_draw{from{stroke-dashoffset:800;fill-opacity:0}to{stroke-dashoffset:0;fill-opacity:1}}
.al3{
  fill:#FEFCFF;fill-opacity:0;
  stroke:#FEFCFF;stroke-width:6;
  stroke-dasharray:800;stroke-dashoffset:800;
  animation:al3_draw 0.22s ease-out 2.99s forwards;
}

@keyframes al4_draw{from{stroke-dashoffset:800;fill-opacity:0}to{stroke-dashoffset:0;fill-opacity:1}}
.al4{
  fill:#FEFCFF;fill-opacity:0;
  stroke:#FEFCFF;stroke-width:6;
  stroke-dasharray:800;stroke-dashoffset:800;
  animation:al4_draw 0.22s ease-out 3.12s forwards;
}

@keyframes al5_draw{from{stroke-dashoffset:800;fill-opacity:0}to{stroke-dashoffset:0;fill-opacity:1}}
.al5{
  fill:#FEFCFF;fill-opacity:0;
  stroke:#FEFCFF;stroke-width:6;
  stroke-dasharray:800;stroke-dashoffset:800;
  animation:al5_draw 0.22s ease-out 3.25s forwards;
}

@keyframes al6_draw{from{stroke-dashoffset:800;fill-opacity:0}to{stroke-dashoffset:0;fill-opacity:1}}
.al6{
  fill:#FEFCFF;fill-opacity:0;
  stroke:#FEFCFF;stroke-width:6;
  stroke-dasharray:800;stroke-dashoffset:800;
  animation:al6_draw 0.22s ease-out 3.38s forwards;
}

@keyframes al7_draw{from{stroke-dashoffset:800;fill-opacity:0}to{stroke-dashoffset:0;fill-opacity:1}}
.al7{
  fill:#FEFCFF;fill-opacity:0;
  stroke:#FEFCFF;stroke-width:6;
  stroke-dasharray:800;stroke-dashoffset:800;
  animation:al7_draw 0.22s ease-out 3.51s forwards;
}

@keyframes al8_draw{from{stroke-dashoffset:800;fill-opacity:0}to{stroke-dashoffset:0;fill-opacity:1}}
.al8{
  fill:#FEFCFF;fill-opacity:0;
  stroke:#FEFCFF;stroke-width:6;
  stroke-dasharray:800;stroke-dashoffset:800;
  animation:al8_draw 0.22s ease-out 3.64s forwards;
}

@keyframes al9_draw{from{stroke-dashoffset:800;fill-opacity:0}to{stroke-dashoffset:0;fill-opacity:1}}
.al9{
  fill:#FEFCFF;fill-opacity:0;
  stroke:#FEFCFF;stroke-width:6;
  stroke-dasharray:800;stroke-dashoffset:800;
  animation:al9_draw 0.22s ease-out 3.77s forwards;
}

</style>
</defs>
<g clip-path="url(#vp)">
<path class="t1" d="M2074.6,2592.6L1448.8,896.5l-21.2-57.3l-21.2-57.5l-20.7,57.6l-20.7,57.5l-256.5,714.4   c-5.6,4.4-10.3,9.8-14.1,15.9c-5.9,9.6-9.2,21-9.1,32.9c0,4.2,0.5,8.3,1.3,12.3l-332.1,924.9c-25.3,8.1-43.4,32.1-43.3,59.9   c0.2,34.7,28.4,62.8,63.2,62.6c34.7-0.2,62.8-28.4,62.6-63.2c-0.1-11.6-3.2-22.5-8.9-31.7l324-902.4c15.6-0.9,29.7-7.5,40-17.8   l470.1-2.1l337.2,914c-6.7,10.1-10.6,22.1-10.5,35c0.2,34.7,28.4,62.8,63.2,62.6c34.6-0.2,62.8-28.4,62.6-63.2   c0-9.9-2.3-19.2-6.6-27.3C2101.4,2609.6,2089.3,2598.4,2074.6,2592.6z M774.4,2688.4c-17.3,0.1-31.5-14-31.6-31.3   c0-6.1,1.8-12,5-16.8c5.5-8.8,15.2-14.7,26.4-14.7c17.3-0.1,31.5,14,31.6,31.3c0,1.4-0.1,2.8-0.3,4.1   C803.4,2676.3,790.3,2688.3,774.4,2688.4z M1344.5,1565.3c-16.8,0.1-30.7-13.4-31.6-30.1l0-1.3c0-1.3,0-2.5,0.1-3.8   c1.1-8.2,5.1-15.4,11.2-20.5c5.5-4.4,12.4-7.3,19.9-7.3c8.2,0,15.6,3.1,21.3,8.4c4.9,4.4,8.5,10.3,9.8,17.3   c0.3,1.9,0.5,3.8,0.5,5.7l0,1.3C1375.1,1551.6,1361.3,1565.2,1344.5,1565.3z M1473.8,1433.6c-17.3,0.1-31.5-14-31.6-31.3   c0-1.3,0-2.5,0.1-3.8c1.1-8.2,5.1-15.4,11.2-20.5c5.5-4.4,12.4-7.3,19.9-7.3c8.2,0,15.6,3.1,21.3,8.4c4.9,4.4,8.5,10.3,9.8,17.3   c0.3,1.9,0.5,3.8,0.5,5.7C1505.2,1419.3,1491.1,1433.5,1473.8,1433.6z M1407.5,1011.7l129.4,350.9l-14.5,0.1   c-7.3-9.2-17.2-16.3-28.5-20c-6.5-2.2-13.4-3.4-20.5-3.4c-5,0-10.1,0.7-14.8,2c-13.7,3.4-25.7,11.3-34,21.8   c-1.9,2.1-3.3,4.3-4.7,6.5c-5.9,9.6-9.2,21-9.1,32.9c0.1,14.9,5.3,28.6,13.9,39.2c11.7,14.3,29.3,23.5,49.3,23.4   c19.8-0.1,37.5-9.4,49-23.8l42.9-0.2l19.9,53.7l-191.5,0.8c-7.4-9.9-17.7-17.4-29.7-21.3c-6.5-2.2-13.4-3.4-20.5-3.4   c-5,0-10.1,0.7-14.8,2c-14.3,3.5-26.7,11.9-35.1,23.1c-1.3,1.7-2.5,3.5-3.6,5.2c-5.9,9.6-9.2,21-9.1,32.9l0,1.3   c0.4,15.1,5.9,28.6,15,39.2c11.5,13.6,28.9,22.2,48.2,22.1c19.2-0.1,36.4-8.8,47.9-22.5l222.2-1l18.8,51l-432.2,1.9   c-2.7-4.5-6-8.6-10-12.2l14-38.9l14.1-39.4l14.1-39.4l19.3-53.9l14.1-39.4l14.1-39.4L1407.5,1011.7z M1117.5,1665.8   c-0.5-1.9-0.6-3.8-0.7-5.8c0-1.3,0-2.5,0.1-3.8c1.1-8.2,5.1-15.4,11.2-20.5c5.5-4.4,12.4-7.3,19.9-7.3c8.2,0,15.6,3.1,21.3,8.4   c3.9,3.6,7.1,8.1,8.7,13.3c0.5,1.3,0.8,2.5,1.1,3.9c0.3,1.9,0.5,3.8,0.5,5.7c0,2-0.1,3.9-0.6,5.8c-1.5,8.7-6.7,16.2-13.9,20.7   c-4.9,3.2-10.7,5.1-16.8,5.1C1133.2,1691.3,1120.3,1680.4,1117.5,1665.8z M2052.1,2682.8c-15.6,0.1-28.5-11.2-31.1-26.1   c-0.3-1.7-0.5-3.5-0.5-5.2c0-9.7,4.3-18.4,11.4-24.3c5.5-4.4,12.4-7.3,19.9-7.3c11.5-0.1,21.6,6.2,27.1,15.4   c1.9,3.1,3.3,6.6,4,10.2c0.3,1.9,0.5,3.8,0.5,5.7C2083.5,2668.5,2069.4,2682.7,2052.1,2682.8z"/>
<path class="t2" d="M2258.6,2705.2L1447.1,505.5l-21.3-57.3l0-0.2l-21-57.3l-20.7,57.5l-20.7,57.5L571.5,2711.9l-0.2,0   c-25.3,8.1-43.7,32-43.6,60.1c0.2,34.7,28.6,62.8,63.2,62.6c34.7-0.2,62.8-28.4,62.6-63.2c-0.1-11.6-3.2-22.3-8.6-31.6   l690.5-1923.5l18.5-51.3l51.9-144.6l53.1,144.1l18.9,51.2l706.5,1915.4c-6.1,9.8-9.7,21.4-9.6,33.7c0.2,34.7,28.4,62.8,63.2,62.6   c34.6-0.2,62.8-28.4,62.6-63.2c0-9.9-2.3-19.2-6.6-27.3C2286.8,2722.2,2274.1,2710.8,2258.6,2705.2z M590.7,2803.2   c-17.3,0.1-31.5-14-31.6-31.3c0-9.1,3.9-17.5,10.3-23.3c5.5-5.1,12.9-8.2,21-8.3c15.9-0.1,29.1,11.7,31.3,27.1   c0.2,1.4,0.3,2.8,0.3,4.2C622.1,2788.9,608,2803.1,590.7,2803.2z M2237.8,2796c-17.3,0.1-31.5-14-31.6-31.3c0-1.1,0-2.4,0.1-3.5   c0.9-8.3,5-15.6,11.2-20.8c5.5-4.4,12.4-7.3,19.9-7.3c8.5,0,16.1,3.2,21.7,8.7c4.7,4.4,8.1,10.3,9.4,16.9c0.3,1.9,0.5,3.8,0.5,5.7   C2269.2,2781.7,2255.1,2795.9,2237.8,2796z"/>
<path class="t3" d="M2364,2538.5c-7.3-15.1-20.2-26.6-36.1-31.9L1522.2,322.8l-0.2,0l-76.7-208.2l-21.2-57.5l0-0.2L1403,0   l-20.7,57.2l-20.7,57.6l-75,209L500.8,2513c-27.6,6.7-48,31.7-47.8,61.2c0.2,34.7,28.4,62.8,63.2,62.6   c34.6-0.2,62.8-28.4,62.6-63.2c0-9.9-2.3-19.2-6.6-27.3l761.6-2121l20.5-57.3l0-0.2l6.4-17.5l3.6-10.2l39.8-110.6l40.7,110.4   l3.7,10l6.4,17.3l21.2,57.5l778,2108.8c-5.9,9.6-9.2,21-9.1,32.9c0.2,34.7,28.4,62.8,63.2,62.6c34.6-0.2,62.8-28.4,62.6-63.2   C2370.6,2555.9,2368.3,2546.7,2364,2538.5z M516,2605.4c-17.3,0.1-31.5-14-31.6-31.3c0-9.7,4.3-18.4,11.4-24.3   c5.5-4.4,12.4-7.3,19.9-7.3c15.4-0.1,28.2,11,31.1,25.7c0.3,1.9,0.5,3.8,0.5,5.7C547.4,2591.1,533.3,2605.3,516,2605.4z    M2307.8,2597.6c-17.3,0.1-31.5-14-31.6-31.3c0-1.3,0-2.5,0.1-3.8c1.1-8.2,5.1-15.4,11.2-20.5c5.5-4.4,12.4-7.3,19.9-7.3   c8.2,0,15.6,3.1,21.3,8.4c4.9,4.4,8.5,10.3,9.8,17.3c0.3,1.9,0.5,3.8,0.5,5.7C2339.2,2583.3,2325.1,2597.5,2307.8,2597.6z"/>
<path class="f1" d="M2074.6,2592.6L1448.8,896.5l-21.2-57.3l-21.2-57.5l-20.7,57.6l-20.7,57.5l-256.5,714.4   c-5.6,4.4-10.3,9.8-14.1,15.9c-5.9,9.6-9.2,21-9.1,32.9c0,4.2,0.5,8.3,1.3,12.3l-332.1,924.9c-25.3,8.1-43.4,32.1-43.3,59.9   c0.2,34.7,28.4,62.8,63.2,62.6c34.7-0.2,62.8-28.4,62.6-63.2c-0.1-11.6-3.2-22.5-8.9-31.7l324-902.4c15.6-0.9,29.7-7.5,40-17.8   l470.1-2.1l337.2,914c-6.7,10.1-10.6,22.1-10.5,35c0.2,34.7,28.4,62.8,63.2,62.6c34.6-0.2,62.8-28.4,62.6-63.2   c0-9.9-2.3-19.2-6.6-27.3C2101.4,2609.6,2089.3,2598.4,2074.6,2592.6z M774.4,2688.4c-17.3,0.1-31.5-14-31.6-31.3   c0-6.1,1.8-12,5-16.8c5.5-8.8,15.2-14.7,26.4-14.7c17.3-0.1,31.5,14,31.6,31.3c0,1.4-0.1,2.8-0.3,4.1   C803.4,2676.3,790.3,2688.3,774.4,2688.4z M1344.5,1565.3c-16.8,0.1-30.7-13.4-31.6-30.1l0-1.3c0-1.3,0-2.5,0.1-3.8   c1.1-8.2,5.1-15.4,11.2-20.5c5.5-4.4,12.4-7.3,19.9-7.3c8.2,0,15.6,3.1,21.3,8.4c4.9,4.4,8.5,10.3,9.8,17.3   c0.3,1.9,0.5,3.8,0.5,5.7l0,1.3C1375.1,1551.6,1361.3,1565.2,1344.5,1565.3z M1473.8,1433.6c-17.3,0.1-31.5-14-31.6-31.3   c0-1.3,0-2.5,0.1-3.8c1.1-8.2,5.1-15.4,11.2-20.5c5.5-4.4,12.4-7.3,19.9-7.3c8.2,0,15.6,3.1,21.3,8.4c4.9,4.4,8.5,10.3,9.8,17.3   c0.3,1.9,0.5,3.8,0.5,5.7C1505.2,1419.3,1491.1,1433.5,1473.8,1433.6z M1407.5,1011.7l129.4,350.9l-14.5,0.1   c-7.3-9.2-17.2-16.3-28.5-20c-6.5-2.2-13.4-3.4-20.5-3.4c-5,0-10.1,0.7-14.8,2c-13.7,3.4-25.7,11.3-34,21.8   c-1.9,2.1-3.3,4.3-4.7,6.5c-5.9,9.6-9.2,21-9.1,32.9c0.1,14.9,5.3,28.6,13.9,39.2c11.7,14.3,29.3,23.5,49.3,23.4   c19.8-0.1,37.5-9.4,49-23.8l42.9-0.2l19.9,53.7l-191.5,0.8c-7.4-9.9-17.7-17.4-29.7-21.3c-6.5-2.2-13.4-3.4-20.5-3.4   c-5,0-10.1,0.7-14.8,2c-14.3,3.5-26.7,11.9-35.1,23.1c-1.3,1.7-2.5,3.5-3.6,5.2c-5.9,9.6-9.2,21-9.1,32.9l0,1.3   c0.4,15.1,5.9,28.6,15,39.2c11.5,13.6,28.9,22.2,48.2,22.1c19.2-0.1,36.4-8.8,47.9-22.5l222.2-1l18.8,51l-432.2,1.9   c-2.7-4.5-6-8.6-10-12.2l14-38.9l14.1-39.4l14.1-39.4l19.3-53.9l14.1-39.4l14.1-39.4L1407.5,1011.7z M1117.5,1665.8   c-0.5-1.9-0.6-3.8-0.7-5.8c0-1.3,0-2.5,0.1-3.8c1.1-8.2,5.1-15.4,11.2-20.5c5.5-4.4,12.4-7.3,19.9-7.3c8.2,0,15.6,3.1,21.3,8.4   c3.9,3.6,7.1,8.1,8.7,13.3c0.5,1.3,0.8,2.5,1.1,3.9c0.3,1.9,0.5,3.8,0.5,5.7c0,2-0.1,3.9-0.6,5.8c-1.5,8.7-6.7,16.2-13.9,20.7   c-4.9,3.2-10.7,5.1-16.8,5.1C1133.2,1691.3,1120.3,1680.4,1117.5,1665.8z M2052.1,2682.8c-15.6,0.1-28.5-11.2-31.1-26.1   c-0.3-1.7-0.5-3.5-0.5-5.2c0-9.7,4.3-18.4,11.4-24.3c5.5-4.4,12.4-7.3,19.9-7.3c11.5-0.1,21.6,6.2,27.1,15.4   c1.9,3.1,3.3,6.6,4,10.2c0.3,1.9,0.5,3.8,0.5,5.7C2083.5,2668.5,2069.4,2682.7,2052.1,2682.8z"/>
<path class="f2" d="M2258.6,2705.2L1447.1,505.5l-21.3-57.3l0-0.2l-21-57.3l-20.7,57.5l-20.7,57.5L571.5,2711.9l-0.2,0   c-25.3,8.1-43.7,32-43.6,60.1c0.2,34.7,28.6,62.8,63.2,62.6c34.7-0.2,62.8-28.4,62.6-63.2c-0.1-11.6-3.2-22.3-8.6-31.6   l690.5-1923.5l18.5-51.3l51.9-144.6l53.1,144.1l18.9,51.2l706.5,1915.4c-6.1,9.8-9.7,21.4-9.6,33.7c0.2,34.7,28.4,62.8,63.2,62.6   c34.6-0.2,62.8-28.4,62.6-63.2c0-9.9-2.3-19.2-6.6-27.3C2286.8,2722.2,2274.1,2710.8,2258.6,2705.2z M590.7,2803.2   c-17.3,0.1-31.5-14-31.6-31.3c0-9.1,3.9-17.5,10.3-23.3c5.5-5.1,12.9-8.2,21-8.3c15.9-0.1,29.1,11.7,31.3,27.1   c0.2,1.4,0.3,2.8,0.3,4.2C622.1,2788.9,608,2803.1,590.7,2803.2z M2237.8,2796c-17.3,0.1-31.5-14-31.6-31.3c0-1.1,0-2.4,0.1-3.5   c0.9-8.3,5-15.6,11.2-20.8c5.5-4.4,12.4-7.3,19.9-7.3c8.5,0,16.1,3.2,21.7,8.7c4.7,4.4,8.1,10.3,9.4,16.9c0.3,1.9,0.5,3.8,0.5,5.7   C2269.2,2781.7,2255.1,2795.9,2237.8,2796z"/>
<path class="f3" d="M2364,2538.5c-7.3-15.1-20.2-26.6-36.1-31.9L1522.2,322.8l-0.2,0l-76.7-208.2l-21.2-57.5l0-0.2L1403,0   l-20.7,57.2l-20.7,57.6l-75,209L500.8,2513c-27.6,6.7-48,31.7-47.8,61.2c0.2,34.7,28.4,62.8,63.2,62.6   c34.6-0.2,62.8-28.4,62.6-63.2c0-9.9-2.3-19.2-6.6-27.3l761.6-2121l20.5-57.3l0-0.2l6.4-17.5l3.6-10.2l39.8-110.6l40.7,110.4   l3.7,10l6.4,17.3l21.2,57.5l778,2108.8c-5.9,9.6-9.2,21-9.1,32.9c0.2,34.7,28.4,62.8,63.2,62.6c34.6-0.2,62.8-28.4,62.6-63.2   C2370.6,2555.9,2368.3,2546.7,2364,2538.5z M516,2605.4c-17.3,0.1-31.5-14-31.6-31.3c0-9.7,4.3-18.4,11.4-24.3   c5.5-4.4,12.4-7.3,19.9-7.3c15.4-0.1,28.2,11,31.1,25.7c0.3,1.9,0.5,3.8,0.5,5.7C547.4,2591.1,533.3,2605.3,516,2605.4z    M2307.8,2597.6c-17.3,0.1-31.5-14-31.6-31.3c0-1.3,0-2.5,0.1-3.8c1.1-8.2,5.1-15.4,11.2-20.5c5.5-4.4,12.4-7.3,19.9-7.3   c8.2,0,15.6,3.1,21.3,8.4c4.9,4.4,8.5,10.3,9.8,17.3c0.3,1.9,0.5,3.8,0.5,5.7C2339.2,2583.3,2325.1,2597.5,2307.8,2597.6z"/>
<path class="ab0" d="m 527.4,2381.8 -107.5,-71 18.2,-51 128.2,13 -11.4,31.8 -21.4,-1.6 -12.8,35.9 17.7,11.9 z m -29.2,-56.1 9.9,-27.7 -53.4,-7.1 -2.2,6 z"/>
<path class="ab1" d="m 661.7,2012.5 c -1.1,3.2 -2.7,7.1 -4.8,11.7 -2,4.6 -4.2,9.3 -6.5,14 -2.3,4.7 -4.3,8.9 -6.1,12.5 l -120.6,-43.1 10.9,-30.5 36,12.9 c 0,-1.9 0.2,-4.1 0.5,-6.8 0.3,-2.7 0.7,-5.4 1.2,-8.2 0.5,-2.7 1.2,-5.2 1.9,-7.3 3,-8.5 7.2,-14.7 12.6,-18.4 5.3,-3.8 11.7,-5.5 19,-5.3 7.3,0.2 15.7,2 25.1,5.4 11.7,4.2 20.5,8.9 26.4,14.2 5.9,5.2 9.2,11.8 9.8,19.6 0.6,7.6 -1.2,17.4 -5.4,29.3 z m -24.6,-9.2 c 1.6,-4.4 1.8,-7.9 0.8,-10.6 -1,-2.7 -3,-5 -6,-7 -3,-1.9 -6.9,-3.8 -11.5,-5.4 -5.1,-1.8 -9.3,-2.9 -12.5,-3.2 -3.2,-0.3 -5.8,0.2 -7.7,1.5 -1.9,1.3 -3.4,3.5 -4.5,6.4 -0.5,1.3 -0.8,2.8 -1.1,4.4 -0.3,1.6 -0.5,3.2 -0.6,4.8 -0.2,1.5 -0.2,2.9 -0.1,4 l 39.3,14.1 c 0.5,-1.1 1.2,-2.6 2,-4.4 0.8,-1.8 1.5,-3.3 1.9,-4.6 z"/>
<path class="ab2" d="m 770.1,1709 c -1.7,4.9 -3.8,8.9 -6.3,12.3 -2.5,3.3 -5.4,5.9 -8.7,7.7 -3.3,1.8 -7.1,2.9 -11.3,3.4 -4.2,0.4 -8.9,0.2 -14.2,-0.8 -5.2,-0.9 -11,-2.5 -17.2,-4.8 -9.7,-3.5 -17.6,-7.7 -23.6,-12.6 -6,-4.9 -9.7,-10.9 -11.4,-17.9 -1.7,-7 -0.8,-15.2 2.6,-24.5 0.5,-1.5 1.3,-3.3 2.2,-5.3 0.9,-2 1.8,-4 2.7,-6 0.9,-2 1.7,-3.7 2.5,-5 l -33.6,-12 10.9,-30.5 121.8,43.5 -10.8,30.2 -4.6,-1.4 c 0.4,1.9 0.7,4.2 0.8,7 0.2,2.8 0.1,5.7 -0.1,8.6 -0.1,2.7 -0.7,5.5 -1.7,8.1 z m -21.5,-17.7 c 0.5,-1.5 1,-3.1 1.2,-4.8 0.3,-1.6 0.4,-3.2 0.5,-4.8 0.1,-1.6 0.2,-2.8 0.2,-3.7 l -39,-13.9 c -0.5,0.7 -1.1,1.8 -1.7,3 -0.6,1.3 -1.2,2.6 -1.8,4 -0.6,1.4 -1.1,2.6 -1.5,3.7 -1.3,3.7 -1.4,6.8 -0.3,9.3 1.1,2.5 3.1,4.8 6.1,6.7 2.9,1.9 6.6,3.7 11,5.2 3.7,1.3 7,2.2 9.8,2.7 2.8,0.5 5.3,0.5 7.3,0.1 2,-0.4 3.7,-1.2 5,-2.5 1.5,-1.4 2.5,-3 3.2,-5 z"/>
<path class="ab3" d="m 880.8,1399.1 c -2.8,7.7 -6.6,13.2 -11.5,16.4 -4.9,3.3 -10.9,4.6 -18.1,4 -7.2,-0.6 -15.7,-2.6 -25.4,-6.1 l -45.4,-16.2 10.8,-30.4 43.7,15.6 c 5.1,1.8 9.2,3 12.3,3.4 3.1,0.4 5.6,0.1 7.3,-1 1.8,-1.1 3.2,-3.1 4.2,-5.9 0.9,-2.6 1.5,-5.2 1.7,-7.9 0.2,-2.7 0.3,-4.9 0.1,-6.7 l -60.7,-21.7 10.8,-30.4 87.5,31.3 -10.8,30.2 -4.9,-1.7 c 0.7,4.9 1,9.5 0.9,13.6 0.2,4.2 -0.7,8.6 -2.5,13.5 z"/>
<path class="ab4" d="m 980.1,1114.6 -121.8,-43.5 10.9,-30.5 121.8,43.5 z"/>
<path class="ab5" d="m 1073,854.8 -121.8,-43.5 10.9,-30.5 121.8,43.5 z"/>
<path class="ab6" d="m 1177,570.2 c -3.6,10.1 -8.6,16.8 -15,20.1 -6.4,3.3 -14.5,3.2 -24.2,-0.3 -7,-2.5 -11.8,-5.7 -14.6,-9.7 -2.8,-4 -4,-8.8 -3.7,-14.4 0.3,-5.6 1.6,-12.1 3.8,-19.3 l 5.2,-18.4 -3.8,-1.4 c -2.9,-1 -5.3,-0.8 -7.1,0.6 -1.8,1.4 -3.3,3.8 -4.5,7.1 -1.3,3.6 -2.6,7.6 -4,12.2 -1.4,4.6 -2.7,9.1 -3.8,13.5 -1.2,4.4 -2.2,8.2 -3,11.6 l -21,-6.5 c 0.4,-3.6 1,-7.8 1.8,-12.7 0.8,-4.8 1.9,-9.9 3.1,-15 1.3,-5.2 2.7,-9.9 4.2,-14.3 2.8,-7.9 6.1,-14.5 9.9,-19.6 3.8,-5.1 8.4,-8.4 13.7,-9.9 5.4,-1.5 11.9,-0.8 19.7,1.9 l 36.9,13.2 c 1.2,0 2.3,-0.5 3.5,-1.5 1.1,-1 2.1,-2.2 2.8,-3.5 l 19.5,7.6 c -0.6,1.9 -1.1,4 -1.6,6.2 -0.5,2.2 -1.1,4.2 -1.8,6.1 -0.7,1.8 -1.3,3.3 -1.8,4.5 -1.4,3.5 -3.1,6.2 -5.2,8.2 -2.1,1.9 -3.9,3.2 -5.4,3.9 0.2,2.1 0.2,4.8 0.2,8.1 -0.1,3.3 -0.4,6.9 -1,10.7 -0.5,3.6 -1.5,7.3 -2.8,11 z m -18.4,-15.4 c 0.6,-1.8 1.1,-3.6 1.3,-5.5 0.2,-1.9 0.3,-3.7 0.3,-5.5 0,-1.8 -0.1,-3.3 -0.2,-4.4 l -14.3,-5.1 -3.4,13.4 c -0.8,2.9 -0.7,5.3 0.3,7.2 1,1.9 2.7,3.3 5.3,4.2 2.6,0.9 4.8,1 6.6,0.4 1.8,-0.7 3.2,-2.2 4.1,-4.7 z"/>
<path class="ab7" d="m 1275.9,286.9 -121.9,-43.5 10.8,-30.4 36.4,13 c 0.1,-2.1 0.3,-4.6 0.6,-7.4 0.3,-2.8 0.7,-5.7 1.2,-8.6 0.5,-2.9 1.1,-5.4 1.9,-7.5 2.2,-6.3 4.9,-11.3 8,-15 3.1,-3.7 6.8,-6.2 11.1,-7.5 4.3,-1.3 9.5,-1.5 15.5,-0.6 6,0.9 13.1,2.9 21.2,5.8 l 45.6,16.3 -10.9,30.5 -43,-15.4 c -5,-1.8 -9.1,-2.9 -12.3,-3.4 -3.2,-0.5 -5.8,-0.2 -7.8,0.8 -1.9,1 -3.5,3.1 -4.6,6.2 -0.6,1.5 -1,3.2 -1.3,5 -0.3,1.8 -0.6,3.5 -0.8,5.1 -0.2,1.7 -0.3,3.1 -0.4,4.3 l 61.3,21.9 z"/>

<path class="al0" d="m 1493.3,194.8 122,-14.1 18,48.3 -101.5,69.2 -11.2,-30.1 16.6,-11.9 -12.7,-34 -20.2,2.2 z m 55.8,22.9 9.8,26.3 43.3,-27.6 -2.1,-5.7 z"/>
<path class="al1" d="m 1594.1,465.4 115.6,-43 10.8,29 -115.6,43 z"/>
<path class="al2" d="m 1683.1,710.6 c -1.8,-4.9 -3.5,-10.2 -5,-15.9 -1.5,-5.7 -2.7,-11.1 -3.7,-16.3 -1,-5.2 -1.8,-9.7 -2.4,-13.3 l 23.2,-6.9 c 1,3.7 2.1,8.1 3.3,13 1.2,5 2.5,10 4,14.9 1.4,5 2.8,9.3 4.1,12.8 1.3,3.5 2.7,6.1 4.3,7.9 1.5,1.8 3.2,2.9 5.1,3.3 1.8,0.4 4,0.2 6.4,-0.8 2,-0.7 3.4,-1.8 4.2,-3.1 0.8,-1.3 1.2,-3.4 1.1,-6.2 -0.1,-2.8 -0.7,-6.8 -1.6,-11.8 -1.5,-7.8 -2.3,-14.4 -2.5,-20.1 -0.2,-5.6 0.5,-10.4 2,-14.4 1.5,-4 3.9,-7.4 7.4,-10.2 3.5,-2.8 8,-5.3 13.6,-7.4 9.5,-3.5 17.4,-4.5 23.9,-3 6.4,1.5 11.9,5 16.3,10.5 4.4,5.5 8.3,12.6 11.5,21.2 1.5,4 3,8.7 4.4,14 1.5,5.3 2.8,10.5 4.1,15.5 1.3,5.1 2.2,9.6 2.9,13.4 l -23.5,7.4 c -0.9,-3.5 -2,-7.6 -3.3,-12.3 -1.3,-4.7 -2.7,-9.4 -4,-14.1 -1.4,-4.7 -2.7,-8.8 -4,-12.3 -1.2,-3.3 -2.5,-5.9 -3.9,-7.8 -1.4,-2 -2.9,-3.2 -4.5,-3.7 -1.6,-0.5 -3.3,-0.4 -5.3,0.3 -2.2,0.8 -3.7,2 -4.6,3.5 -0.9,1.5 -1.3,3.6 -1.2,6.5 0.1,2.8 0.5,6.8 1.2,11.9 1.2,7.9 1.9,14.6 2,20.1 0.2,5.6 -0.4,10.3 -1.7,14.1 -1.3,3.9 -3.6,7.2 -6.9,10 -3.3,2.8 -7.9,5.2 -13.9,7.5 -9,3.4 -16.9,4.4 -23.5,3.2 -6.7,-1.2 -12.3,-4.5 -17,-10 -5.2,-5.3 -9.2,-12.5 -12.5,-21.4 z"/>
<path class="al3" d="m 1764,921.9 115.6,-43 10.7,28.8 -34.5,12.8 c 1.2,1.6 2.6,3.5 4.1,5.8 1.5,2.2 3,4.6 4.4,7 1.4,2.4 2.5,4.6 3.2,6.7 2.2,6 3.3,11.2 3.4,15.8 0,4.6 -1.1,8.7 -3.5,12.3 -2.3,3.6 -6,6.9 -11,9.9 -5,3 -11.3,5.9 -19,8.8 l -43.3,16.1 -10.8,-29 40.8,-15.2 c 4.7,-1.8 8.4,-3.5 11.1,-5.1 2.7,-1.6 4.4,-3.4 5.1,-5.4 0.8,-2 0.6,-4.4 -0.5,-7.3 -0.5,-1.5 -1.2,-2.9 -2.1,-4.4 -0.9,-1.5 -1.7,-2.9 -2.6,-4.2 -0.9,-1.3 -1.7,-2.4 -2.4,-3.3 l -58.1,21.6 z"/>
<path class="al4" d="m 1870.2,1213.3 c -3.7,-9.9 -5.1,-18.3 -4.2,-25.3 0.9,-7 3.9,-12.9 9.3,-17.7 5.3,-4.9 12.8,-9.1 22.4,-12.6 10,-3.7 18.9,-5.3 26.6,-4.8 7.7,0.5 14.3,3.2 19.9,8 5.6,4.8 10.1,11.9 13.5,21.2 5,13.4 5.6,24.6 2,33.7 -3.6,9.1 -12.1,16.1 -25.4,21.1 l -14.4,3.8 -19,-51 c -4.4,1.7 -7.3,4 -8.7,6.7 -1.4,2.7 -1.3,6.4 0.5,11.1 1.3,3.6 2.9,7.6 4.7,12 1.8,4.4 3.7,8.7 5.5,13.1 1.9,4.4 3.5,8 4.8,11 l -18.7,7.7 c -1.6,-2.7 -3.6,-6.2 -6,-10.4 -2.3,-4.2 -4.6,-8.8 -6.9,-13.5 -2.3,-5 -4.3,-9.6 -5.9,-14.1 z m 47.2,-30 8.8,23.6 c 5.6,-2.1 9.2,-4.5 10.8,-7.1 1.6,-2.6 1.6,-6 0.1,-10 -1,-2.8 -2.4,-4.9 -4.1,-6.4 -1.7,-1.4 -3.8,-2.1 -6.3,-2.1 -2.5,0.1 -5.6,0.7 -9.3,2 z"/>
<path class="al5" d="m 1950.9,1424.3 83,-30.9 10.7,28.8 -4.8,1.8 c 1.6,1.3 3.4,3 5.3,4.9 1.9,2 3.7,4.1 5.4,6.5 1.7,2.4 3,4.7 3.9,7.1 2.2,6 3.3,11.2 3.3,15.7 0,4.5 -1.2,8.6 -3.7,12.3 -2.5,3.7 -6.2,7 -11.3,10.1 -5.1,3.1 -11.5,6.1 -19.3,9 l -42.4,15.8 -10.8,-29.1 40.8,-15.2 c 4.7,-1.8 8.4,-3.5 11.1,-5.1 2.7,-1.6 4.4,-3.4 5.1,-5.4 0.8,-2 0.7,-4.3 -0.3,-7 -0.6,-1.6 -1.3,-3.1 -2.2,-4.6 -0.9,-1.5 -1.8,-2.9 -2.8,-4.2 -1,-1.3 -1.9,-2.4 -2.7,-3.2 l -57.6,21.4 z"/>
<path class="al6" d="m 2052.5,1703.3 c -3.6,-9.5 -4,-17.5 -1.4,-23.8 2.6,-6.4 8.6,-11.3 17.8,-14.7 6.6,-2.5 12.1,-3.1 16.6,-1.9 4.5,1.2 8.3,4 11.5,8.3 3.2,4.3 6.3,9.8 9.1,16.4 l 7.5,16.6 3.6,-1.4 c 2.8,-1 4.4,-2.6 4.8,-4.8 0.5,-2.2 0.1,-4.8 -1.1,-7.9 -1.3,-3.4 -2.8,-7.1 -4.6,-11.3 -1.8,-4.2 -3.6,-8.2 -5.5,-12.2 -1.8,-3.9 -3.5,-7.3 -4.9,-10.2 l 19.3,-8.2 c 1.9,2.9 4.1,6.3 6.5,10.3 2.4,4 4.7,8.3 6.9,12.9 2.3,4.5 4.1,8.9 5.7,13 2.8,7.5 4.4,14.3 4.8,20.4 0.4,6.1 -0.9,11.3 -3.9,15.7 -3,4.4 -8.2,7.9 -15.6,10.7 l -35,13 c -0.9,0.7 -1.4,1.8 -1.6,3.2 -0.2,1.4 -0.2,2.9 0.1,4.3 l -18.8,6.4 c -0.8,-1.8 -1.7,-3.6 -2.6,-5.5 -1,-1.9 -1.8,-3.8 -2.4,-5.5 -0.6,-1.7 -1.1,-3.2 -1.4,-4.4 -1.1,-3.4 -1.6,-6.5 -1.2,-9.1 0.3,-2.7 0.8,-4.7 1.6,-6.1 -1.4,-1.4 -3.1,-3.3 -5.1,-5.8 -2,-2.5 -3.9,-5.3 -5.8,-8.4 -2,-3.2 -3.6,-6.5 -4.9,-10 z m 22.9,-0.1 c 0.6,1.7 1.4,3.3 2.4,4.8 1,1.5 2,2.9 3.2,4.2 1.1,1.3 2.1,2.3 2.8,3.1 l 13.5,-5 -5.7,-11.9 c -1.2,-2.6 -2.8,-4.3 -4.6,-5.1 -1.9,-0.8 -4,-0.7 -6.4,0.2 -2.4,0.9 -4.1,2.2 -5.1,3.8 -0.9,1.5 -1,3.5 -0.1,5.9 z"/>
<path class="al7" d="m 2138.1,1927.1 83,-30.9 10.7,28.8 -83,30.9 z m 92.8,-34.8 21.6,-8 10.8,29.1 -21.6,8 z"/>
<path class="al8" d="m 2214.5,2132.4 59.9,-22.3 -2.5,-6.7 23.1,-8.6 2.5,6.7 3,-1.1 c 7.8,-2.9 14.3,-4.4 19.4,-4.6 5.2,-0.1 9.5,1.4 13,4.6 3.5,3.2 6.5,8.2 9.1,15 0.8,2.2 1.6,4.7 2.4,7.4 0.8,2.7 1.5,5.3 2.1,7.9 0.6,2.5 1.1,4.5 1.4,6.1 l -21.2,7.7 c -0.6,-1.7 -1.2,-3.4 -1.8,-5.2 -0.6,-1.8 -1.1,-3.3 -1.6,-4.7 -0.8,-2.1 -1.7,-3.7 -2.7,-4.8 -1,-1.1 -2.2,-1.7 -3.5,-1.8 -1.3,-0.1 -3,0.2 -5.1,1 l -3.6,1.4 6.5,17.3 -23.1,8.6 -6.5,-17.3 -59.9,22.3 z"/>
<path class="al9" d="m 2294.3,2346.8 83,-30.9 10.7,28.8 -83,30.9 z m 92.8,-34.8 21.6,-8 10.8,29.1 -21.6,8 z"/>

</g>
</svg>